<svg width="201" height="40" viewBox="0 0 201 40" fill="none" xmlns="http://www.w3.org/2000/svg">
<g clip-path="url(#clip0_9_776)">
<path d="M5.57989 5.27771L5.53989 5.31771L5.50989 5.28771C5.50989 5.28771 5.55989 5.28771 5.57989 5.28771V5.27771Z" fill="black"/>
<path d="M23.0142 31.0505C21.5181 31.8085 19.9821 31.9681 18.9648 31.9681C17.9475 31.9681 16.9301 31.8085 16.202 31.5192C15.4739 31.23 15.1248 30.8909 15.045 30.6615C14.9752 30.462 15.1049 30.1827 15.424 29.6242C15.8429 28.8761 16.4115 27.8688 16.0225 26.5921C15.2645 24.1485 11.9631 23.4403 8.93099 22.9616H8.8911L8.8512 22.9516C7.38503 22.7322 5.87896 22.5028 4.5225 22.5028C3.01643 22.5028 1.88938 22.802 1.10143 23.4304C1.09146 23.3805 1.08149 23.3406 1.07151 23.2907C1.07151 23.2708 1.06154 23.2409 1.05156 23.2209C1.00169 23.0115 0.951824 22.812 0.911929 22.6125C0.852085 22.3631 0.812189 22.1238 0.762319 21.8844C0.752345 21.8146 0.732397 21.7348 0.722423 21.665C0.682528 21.4755 0.652606 21.286 0.622684 21.1064C0.592762 20.9369 0.56284 20.7573 0.542892 20.5878C0.522944 20.4481 0.502996 20.3085 0.483048 20.1689C0.4631 20.0193 0.443153 19.8796 0.423205 19.73C0.403257 19.5505 0.383309 19.361 0.363361 19.1815C0.343413 18.9122 0.323465 18.6528 0.313491 18.4035C0.313491 18.3137 0.313491 18.2339 0.303517 18.1442C0.263621 16.4985 0.532918 15.1919 1.21115 14.4638C1.26102 14.4139 1.30091 14.374 1.35078 14.3241C1.40065 14.2743 1.45052 14.2443 1.50039 14.2044C2.03899 13.8254 3.29571 13.3866 4.40281 13.8454C6.248 14.6034 6.51729 17.3762 6.51729 17.4061C6.56716 17.9646 7.05589 18.3935 7.6244 18.3436C8.19292 18.2938 8.61183 17.7951 8.56196 17.2365C8.54201 17.077 8.18295 13.1871 5.19076 11.9603C4.63222 11.7309 4.0637 11.6312 3.49518 11.6112C3.48521 11.5414 3.46526 11.4616 3.42537 11.3918C2.67732 9.87575 2.90672 8.11036 3.96396 7.11296C4.44271 6.65416 5.09102 6.35494 5.72935 6.26518C5.84904 6.2552 5.94878 6.24523 6.06847 6.23525C6.36769 6.22528 6.65693 6.2552 6.9362 6.34497C7.77401 6.59432 8.26274 7.22268 8.59188 7.64158C9.24019 8.46942 9.33992 9.07783 9.51946 10.1849C9.65909 11.0028 9.82865 12.0202 10.2775 13.4165C11.0355 15.8003 12.0129 17.4859 12.6912 18.4933C13.2796 19.351 13.9479 20.1589 14.676 20.9069C15.055 21.286 15.6534 21.3159 16.0524 20.9768C16.0723 20.9568 16.1023 20.9269 16.1222 20.9069C16.5212 20.508 16.5312 19.8597 16.1322 19.4607C15.4839 18.8024 14.8954 18.0843 14.3768 17.3363C13.7684 16.4486 12.9006 14.9425 12.2224 12.7981C11.8234 11.5414 11.6738 10.6437 11.5342 9.84583C11.3247 8.59908 11.1652 7.62163 10.1977 6.38486C9.79873 5.87619 8.98086 4.82893 7.52466 4.39007C7.38503 4.35018 7.23542 4.31028 7.08581 4.28036C7.37506 3.55226 7.91365 2.95382 8.6218 2.61471C9.66907 2.11601 10.7762 2.34541 11.4644 2.73439C12.1027 3.09346 12.4518 3.6121 12.761 4.12077C13.8482 5.92606 14.3369 7.42216 14.8156 8.86838C15.1647 9.95554 15.5338 11.0826 16.1422 12.2695C16.9201 13.7855 17.9873 15.1919 19.3139 16.4486C19.6929 16.8077 20.2714 16.8176 20.6604 16.4985C20.6903 16.4685 20.7302 16.4386 20.7601 16.4087C21.1491 15.9998 21.1291 15.3515 20.7202 14.9625C19.5632 13.8653 18.6357 12.6485 17.9574 11.3419C17.4288 10.3046 17.0997 9.30723 16.7506 8.24002C16.2718 6.76387 15.7233 5.08825 14.5164 3.07351C14.3169 2.73439 13.9579 2.13596 13.3395 1.58739C13.7783 1.01887 14.5364 0.290774 15.6534 0.0813206C16.4314 -0.0682888 17.1795 0.0314508 17.7579 0.340644C18.3564 0.669784 18.6656 1.42781 19.7727 4.28036L19.8226 4.40005C20.022 4.90872 20.2315 5.41739 20.4409 5.92606C20.7302 6.63421 21.0294 7.37229 21.2987 8.10038C22.2263 10.6338 23.7523 13.1871 25.8568 15.6706L25.8269 15.7005L25.7471 15.8302L25.7271 15.8502L25.6872 15.91C24.3607 17.825 22.1265 21.0266 23.473 23.4403C24.1114 24.5873 25.2185 24.8666 26.0363 25.0661C26.7245 25.2356 26.9938 25.3354 27.0936 25.5448C27.6022 26.5522 25.787 29.6441 23.0342 31.0505H23.0142Z" fill="black"/>
<path d="M5.57989 5.27771L5.53989 5.31771L5.50989 5.28771C5.50989 5.28771 5.55989 5.28771 5.57989 5.28771V5.27771Z" fill="black"/>
<path d="M6.04941 6.2453C5.94941 6.2753 5.84941 6.2853 5.73941 6.2753C5.72941 6.2753 5.71941 6.2753 5.70941 6.2753C5.82941 6.2653 5.92941 6.2553 6.04941 6.2453Z" fill="black"/>
<path d="M5.57989 5.27771L5.53989 5.31771L5.50989 5.28771C5.50989 5.28771 5.55989 5.28771 5.57989 5.28771V5.27771Z" fill="black"/>
<path d="M36.3693 22.6224C36.3693 22.9416 36.3594 23.2508 36.3394 23.57C36.1399 27.1506 34.7336 30.5418 32.1603 33.6437C30.385 35.798 28.071 37.5634 25.4778 38.7503C25.1087 38.89 24.7597 39.0097 24.4205 39.1194C22.5654 39.6979 20.6703 39.9871 18.7653 39.9871C18.3065 39.9871 17.8377 39.9672 17.3789 39.9372C13.3594 39.648 9.93835 38.3215 7.21546 35.9876C5.64955 34.651 4.13351 32.8059 3.05632 30.9208C2.95658 30.7512 2.86681 30.5817 2.77705 30.4121C2.77705 30.4121 2.77705 30.4021 2.76707 30.3922C1.70983 28.3774 1.32085 26.5921 1.66994 25.5249C1.66994 25.5249 1.68989 25.4551 1.69986 25.4251C1.69986 25.4052 1.71981 25.3753 1.72978 25.3453C1.7597 25.2855 1.78962 25.2257 1.82952 25.1658C1.83949 25.1459 1.84947 25.1259 1.86942 25.106C1.87939 25.086 1.88936 25.0661 1.90931 25.0461L1.95918 24.9863C2.43793 24.4178 3.37548 24.2283 4.52249 24.2283C5.74929 24.2283 7.21546 24.4477 8.58189 24.6571H8.64174C10.3373 24.9264 13.8581 25.475 14.3568 27.0808C14.5164 27.6194 14.297 28.0682 13.908 28.7465C13.529 29.4147 13.0502 30.2525 13.4093 31.23C13.6985 32.0179 14.4366 32.6662 15.5637 33.1051C16.4613 33.4542 17.6582 33.6836 18.9648 33.6836C20.5207 33.6836 22.2462 33.3744 23.8022 32.5765C26.944 30.9806 29.7965 27.0509 28.6296 24.7469C28.1508 23.7794 27.2033 23.55 26.4353 23.3605C25.6972 23.181 25.2284 23.0414 24.9691 22.5726C24.1512 21.1064 26.1261 18.2638 27.0936 16.8774C27.1235 16.8376 27.1534 16.7977 27.1734 16.7578C27.1734 16.7578 27.1434 16.7578 27.1335 16.7478C27.1434 16.7478 27.1634 16.7478 27.1734 16.7478L27.4127 16.4186C27.6621 16.0596 27.9314 15.6806 28.1907 15.3315C28.2306 15.2716 28.2705 15.2218 28.3104 15.1719C29.3577 13.7556 30.6942 12.1697 31.9309 12.1697C31.9808 12.1697 32.0307 12.1697 32.0805 12.1697C34.2648 12.3991 36.3494 17.6654 36.3494 22.6025L36.3693 22.6224Z" fill="black"/>
<path d="M58.6196 15.9855C58.1508 15.1277 57.5025 14.4695 56.6846 14.0206C55.8668 13.5718 54.8993 13.3424 53.8121 13.3424C52.5953 13.3424 51.5181 13.6217 50.5806 14.1603C49.643 14.7088 48.9049 15.4868 48.3763 16.5141C47.8477 17.5414 47.5884 18.7084 47.5884 20.0349C47.5884 21.3615 47.8577 22.5982 48.3963 23.6156C48.9349 24.6329 49.6829 25.4209 50.6404 25.9595C51.5979 26.508 52.715 26.7773 53.9917 26.7773C55.5576 26.7773 56.8342 26.3584 57.8416 25.5306C58.839 24.7027 59.4973 23.5358 59.8065 22.0497H52.7649V18.9079H63.8659V22.4885C63.5966 23.9148 63.0081 25.2413 62.1005 26.4482C61.2028 27.665 60.0359 28.6325 58.6196 29.3706C57.2033 30.1086 55.6074 30.4677 53.852 30.4677C51.8772 30.4677 50.0918 30.0189 48.496 29.1312C46.9002 28.2435 45.6534 27.0067 44.7358 25.4209C43.8282 23.835 43.3694 22.0397 43.3694 20.015C43.3694 17.9903 43.8282 16.195 44.7358 14.5991C45.6434 13.0033 46.9002 11.7565 48.496 10.8689C50.0918 9.98118 51.8672 9.53235 53.8221 9.53235C56.1261 9.53235 58.1408 10.0909 59.8364 11.2179C61.5419 12.345 62.7089 13.9209 63.3572 15.9556H58.6295L58.6196 15.9855Z" fill="black"/>
<path d="M72.0497 14.7088C72.8975 14.2201 73.8749 13.9708 74.9721 13.9708V18.2895H73.8849C72.5983 18.2895 71.6208 18.5887 70.9625 19.1971C70.3043 19.8055 69.9751 20.8628 69.9751 22.3688V30.4677H65.8658V14.2101H69.9751V16.7336C70.5037 15.8758 71.1919 15.1976 72.0497 14.7088Z" fill="black"/>
<path d="M93.0202 23.2964H81.1312C81.231 24.4733 81.6399 25.3909 82.368 26.0592C83.0961 26.7275 83.9838 27.0566 85.041 27.0566C86.5671 27.0566 87.6542 26.3983 88.3025 25.0917H92.731C92.2622 26.6576 91.3645 27.9443 90.028 28.9517C88.6915 29.959 87.0658 30.4677 85.1208 30.4677C83.5549 30.4677 82.1486 30.1186 80.9118 29.4304C79.6651 28.7322 78.6976 27.7548 78.0094 26.4781C77.3112 25.2014 76.9721 23.7353 76.9721 22.0696C76.9721 20.404 77.3112 18.9079 77.9994 17.6412C78.6876 16.3645 79.6451 15.3871 80.8719 14.7088C82.1087 14.0206 83.525 13.6815 85.1308 13.6815C86.7366 13.6815 88.0631 14.0107 89.28 14.6789C90.5068 15.3472 91.4543 16.2847 92.1226 17.5115C92.8008 18.7383 93.1399 20.1347 93.1399 21.7205C93.1399 22.309 93.1 22.8376 93.0202 23.3064V23.2964ZM88.881 20.5336C88.8611 19.4764 88.4821 18.6286 87.734 17.9903C86.986 17.3519 86.0783 17.0328 85.0011 17.0328C83.9838 17.0328 83.126 17.342 82.4279 17.9603C81.7297 18.5787 81.3108 19.4365 81.1512 20.5336H88.871H88.881Z" fill="black"/>
<path d="M111.188 23.2964H99.299C99.3988 24.4733 99.8077 25.3909 100.536 26.0592C101.264 26.7275 102.152 27.0566 103.209 27.0566C104.735 27.0566 105.822 26.3983 106.47 25.0917H110.899C110.43 26.6576 109.532 27.9443 108.196 28.9517C106.859 29.959 105.234 30.4677 103.289 30.4677C101.723 30.4677 100.316 30.1186 99.0796 29.4304C97.8329 28.7322 96.8654 27.7548 96.1772 26.4781C95.479 25.2014 95.1399 23.7353 95.1399 22.0696C95.1399 20.404 95.479 18.9079 96.1672 17.6412C96.8554 16.3645 97.8129 15.3871 99.0397 14.7088C100.276 14.0206 101.693 13.6815 103.299 13.6815C104.904 13.6815 106.231 14.0107 107.448 14.6789C108.675 15.3472 109.622 16.2847 110.29 17.5115C110.969 18.7383 111.308 20.1347 111.308 21.7205C111.308 22.309 111.268 22.8376 111.188 23.3064V23.2964ZM107.049 20.5336C107.029 19.4764 106.65 18.6286 105.902 17.9903C105.154 17.3519 104.246 17.0328 103.169 17.0328C102.152 17.0328 101.294 17.342 100.596 17.9603C99.8975 18.5787 99.4786 19.4365 99.319 20.5336H107.039H107.049Z" fill="black"/>
<path d="M119.382 17.5813V25.4508C119.382 25.9993 119.511 26.3983 119.781 26.6377C120.05 26.887 120.489 27.0067 121.117 27.0067H123.022V30.4677H120.439C116.978 30.4677 115.243 28.7821 115.243 25.4209V17.5813H113.308V14.2101H115.243V10.1906H119.382V14.2101H123.022V17.5813H119.382Z" fill="black"/>
<path d="M150.047 15.796C151.274 17.0228 151.882 18.7283 151.882 20.9226V30.4677H147.773V21.4811C147.773 20.2045 147.454 19.237 146.805 18.5588C146.157 17.8806 145.279 17.5414 144.162 17.5414C143.045 17.5414 142.158 17.8806 141.509 18.5588C140.851 19.237 140.522 20.2045 140.522 21.4811V30.4677H136.413V21.4811C136.413 20.2045 136.093 19.237 135.445 18.5588C134.797 17.8806 133.919 17.5414 132.802 17.5414C131.685 17.5414 130.767 17.8806 130.119 18.5588C129.461 19.237 129.132 20.2045 129.132 21.4811V30.4677H125.022V14.2002H129.132V16.165C129.66 15.4768 130.338 14.9382 131.176 14.5492C132.004 14.1603 132.922 13.9608 133.919 13.9608C135.186 13.9608 136.323 14.2301 137.32 14.7687C138.318 15.3073 139.096 16.0753 139.644 17.0727C140.173 16.1351 140.941 15.3771 141.948 14.8086C142.955 14.2401 144.043 13.9608 145.22 13.9608C147.214 13.9608 148.83 14.5692 150.047 15.796Z" fill="black"/>
<path d="M154.87 17.6312C155.528 16.3545 156.416 15.3771 157.543 14.6989C158.67 14.0107 159.926 13.6715 161.313 13.6715C162.53 13.6715 163.587 13.9209 164.495 14.4096C165.402 14.8983 166.13 15.5167 166.679 16.2548V13.9309H170.818V30.1984H166.679V27.8246C166.15 28.5826 165.422 29.2209 164.495 29.7196C163.567 30.2183 162.49 30.4677 161.283 30.4677C159.916 30.4677 158.67 30.1186 157.543 29.4105C156.416 28.7023 155.528 27.7149 154.87 26.4282C154.211 25.1416 153.882 23.6754 153.882 22.0098C153.882 20.3441 154.211 18.9079 154.87 17.6312ZM166.1 19.4963C165.711 18.7782 165.183 18.2296 164.514 17.8506C163.846 17.4716 163.138 17.2821 162.37 17.2821C161.602 17.2821 160.904 17.4716 160.256 17.8407C159.607 18.2097 159.089 18.7583 158.69 19.4664C158.291 20.1845 158.091 21.0323 158.091 22.0098C158.091 22.9872 158.291 23.845 158.69 24.5831C159.089 25.3211 159.617 25.8797 160.276 26.2687C160.934 26.6576 161.632 26.8571 162.37 26.8571C163.108 26.8571 163.846 26.6676 164.514 26.2886C165.183 25.9096 165.711 25.361 166.1 24.6429C166.489 23.9248 166.689 23.067 166.689 22.0696C166.689 21.0722 166.489 20.2145 166.1 19.4963Z" fill="black"/>
<path d="M178.892 17.5813V25.4508C178.892 25.9993 179.022 26.3983 179.291 26.6377C179.56 26.887 179.999 27.0067 180.628 27.0067H182.533V30.4677H179.949C176.488 30.4677 174.753 28.7821 174.753 25.4209V17.5813H172.818V14.2101H174.753V10.1906H178.892V14.2101H182.533V17.5813H178.892Z" fill="black"/>
<path d="M200.581 23.2964H188.692C188.791 24.4733 189.2 25.3909 189.928 26.0592C190.657 26.7275 191.544 27.0566 192.602 27.0566C194.128 27.0566 195.215 26.3983 195.863 25.0917H200.291C199.823 26.6576 198.925 27.9443 197.589 28.9517C196.252 29.959 194.626 30.4677 192.681 30.4677C191.115 30.4677 189.709 30.1186 188.472 29.4304C187.226 28.7322 186.258 27.7548 185.57 26.4781C184.872 25.2014 184.533 23.7353 184.533 22.0696C184.533 20.404 184.872 18.9079 185.56 17.6412C186.248 16.3645 187.206 15.3871 188.432 14.7088C189.669 14.0206 191.085 13.6815 192.691 13.6815C194.297 13.6815 195.624 14.0107 196.84 14.6789C198.067 15.3472 199.015 16.2847 199.683 17.5115C200.361 18.7383 200.7 20.1347 200.7 21.7205C200.7 22.309 200.66 22.8376 200.581 23.3064V23.2964ZM196.441 20.5336C196.422 19.4764 196.043 18.6286 195.294 17.9903C194.546 17.3519 193.639 17.0328 192.562 17.0328C191.544 17.0328 190.687 17.342 189.988 17.9603C189.29 18.5787 188.871 19.4365 188.712 20.5336H196.432H196.441Z" fill="black"/>
</g>
<defs>
<clipPath id="clip0_9_776">
<rect width="200.401" height="39.9743" fill="white" transform="translate(0.299683 0.0128784)"/>
</clipPath>
</defs>
</svg>
