<svg width="203" height="40" viewBox="0 0 203 40" fill="none" xmlns="http://www.w3.org/2000/svg">
<g clip-path="url(#clip0_9_776)">
<path d="M5.29638 5.27841L5.25638 5.31841L5.22638 5.28841C5.22638 5.28841 5.27638 5.28841 5.29638 5.28841V5.27841Z" fill="#F5F5FF"/>
<path d="M22.7307 31.0512C21.2346 31.8092 19.6986 31.9688 18.6813 31.9688C17.6639 31.9688 16.6466 31.8092 15.9185 31.5199C15.1904 31.2307 14.8413 30.8916 14.7615 30.6622C14.6917 30.4627 14.8214 30.1834 15.1405 29.6249C15.5594 28.8768 16.128 27.8695 15.739 26.5928C14.9809 24.1492 11.6796 23.441 8.64748 22.9623H8.60759L8.56769 22.9523C7.10152 22.7329 5.59545 22.5035 4.23899 22.5035C2.73293 22.5035 1.60587 22.8027 0.817926 23.4311C0.807952 23.3812 0.797978 23.3413 0.788004 23.2914C0.788004 23.2715 0.77803 23.2416 0.768056 23.2216C0.718186 23.0122 0.668316 22.8127 0.62842 22.6132C0.568577 22.3638 0.528681 22.1245 0.478811 21.8851C0.468837 21.8153 0.448889 21.7355 0.438915 21.6657C0.399019 21.4762 0.369097 21.2867 0.339176 21.1071C0.309254 20.9376 0.279332 20.758 0.259384 20.5885C0.239436 20.4488 0.219488 20.3092 0.19954 20.1696C0.179592 20.02 0.159644 19.8803 0.139696 19.7307C0.119748 19.5512 0.0998005 19.3617 0.0798526 19.1822C0.0599047 18.9129 0.0399567 18.6535 0.0299828 18.4042C0.0299828 18.3144 0.0299828 18.2346 0.0200088 18.1449C-0.019887 16.4992 0.24941 15.1926 0.927639 14.4645C0.977509 14.4146 1.0174 14.3747 1.06727 14.3248C1.11714 14.275 1.16701 14.245 1.21688 14.2052C1.75548 13.8261 3.0122 13.3873 4.11931 13.8461C5.96449 14.6041 6.23379 17.3769 6.23379 17.4068C6.28366 17.9653 6.77238 18.3942 7.3409 18.3443C7.90941 18.2945 8.32832 17.7958 8.27845 17.2372C8.2585 17.0777 7.89944 13.1878 4.90725 11.961C4.34871 11.7316 3.78019 11.6319 3.21168 11.6119C3.2017 11.5421 3.18175 11.4623 3.14186 11.3925C2.39381 9.87645 2.62321 8.11106 3.68045 7.11366C4.1592 6.65486 4.80751 6.35564 5.44584 6.26588C5.56553 6.2559 5.66527 6.24593 5.78496 6.23596C6.08418 6.22598 6.37342 6.2559 6.65269 6.34567C7.49051 6.59502 7.97923 7.22338 8.30837 7.64228C8.95668 8.47012 9.05642 9.07854 9.23595 10.1856C9.37558 11.0035 9.54514 12.0209 9.99397 13.4172C10.752 15.801 11.7294 17.4866 12.4077 18.494C12.9961 19.3517 13.6644 20.1596 14.3925 20.9077C14.7715 21.2867 15.3699 21.3166 15.7689 20.9775C15.7888 20.9575 15.8188 20.9276 15.8387 20.9077C16.2377 20.5087 16.2476 19.8604 15.8487 19.4614C15.2004 18.8031 14.6119 18.085 14.0933 17.337C13.4849 16.4493 12.6171 14.9432 11.9389 12.7988C11.5399 11.5421 11.3903 10.6444 11.2507 9.84653C11.0412 8.59978 10.8817 7.62234 9.91418 6.38557C9.51522 5.87689 8.69735 4.82963 7.24116 4.39077C7.10152 4.35088 6.95191 4.31098 6.8023 4.28106C7.09155 3.55296 7.63014 2.95452 8.33829 2.61541C9.38556 2.11671 10.4927 2.34611 11.1809 2.7351C11.8192 3.09416 12.1683 3.6128 12.4775 4.12148C13.5646 5.92676 14.0534 7.42286 14.5321 8.86908C14.8812 9.95624 15.2502 11.0833 15.8587 12.2702C16.6366 13.7862 17.7038 15.1926 19.0304 16.4493C19.4094 16.8084 19.9879 16.8183 20.3769 16.4992C20.4068 16.4692 20.4467 16.4393 20.4766 16.4094C20.8656 16.0005 20.8456 15.3522 20.4367 14.9632C19.2797 13.866 18.3521 12.6492 17.6739 11.3426C17.1453 10.3053 16.8162 9.30794 16.4671 8.24072C15.9883 6.76458 15.4398 5.08895 14.2329 3.07421C14.0334 2.7351 13.6744 2.13666 13.056 1.58809C13.4948 1.01957 14.2528 0.291476 15.3699 0.0820225C16.1479 -0.0675869 16.896 0.0321527 17.4744 0.341345C18.0729 0.670486 18.3821 1.42851 19.4892 4.28106L19.539 4.40075C19.7385 4.90942 19.948 5.41809 20.1574 5.92676C20.4467 6.63491 20.7459 7.37299 21.0152 8.10109C21.9428 10.6345 23.4688 13.1878 25.5733 15.6713L25.5434 15.7012L25.4636 15.8309L25.4436 15.8509L25.4037 15.9107C24.0772 17.8257 21.843 21.0273 23.1895 23.441C23.8279 24.588 24.935 24.8673 25.7528 25.0668C26.441 25.2363 26.7103 25.3361 26.8101 25.5455C27.3187 26.5529 25.5035 29.6448 22.7507 31.0512H22.7307Z" fill="#F5F5FF"/>
<path d="M5.29638 5.27841L5.25638 5.31841L5.22638 5.28841C5.22638 5.28841 5.27638 5.28841 5.29638 5.28841V5.27841Z" fill="#F5F5FF"/>
<path d="M5.7659 6.246C5.6659 6.276 5.5659 6.286 5.4559 6.276C5.4459 6.276 5.4359 6.276 5.4259 6.276C5.5459 6.266 5.6459 6.256 5.7659 6.246Z" fill="#F5F5FF"/>
<path d="M5.29638 5.27841L5.25638 5.31841L5.22638 5.28841C5.22638 5.28841 5.27638 5.28841 5.29638 5.28841V5.27841Z" fill="#F5F5FF"/>
<path d="M36.0858 22.6232C36.0858 22.9423 36.0759 23.2515 36.0559 23.5707C35.8564 27.1513 34.4501 30.5425 31.8768 33.6444C30.1015 35.7988 27.7875 37.5641 25.1943 38.751C24.8252 38.8907 24.4761 39.0104 24.137 39.1201C22.2819 39.6986 20.3868 39.9878 18.4818 39.9878C18.023 39.9878 17.5542 39.9679 17.0954 39.9379C13.0759 39.6487 9.65484 38.3222 6.93195 35.9883C5.36604 34.6517 3.85 32.8066 2.77281 30.9215C2.67307 30.7519 2.5833 30.5824 2.49354 30.4128C2.49354 30.4128 2.49354 30.4028 2.48356 30.3929C1.42632 28.3781 1.03734 26.5928 1.38643 25.5256C1.38643 25.5256 1.40638 25.4558 1.41635 25.4258C1.41635 25.4059 1.4363 25.376 1.44627 25.346C1.47619 25.2862 1.50612 25.2264 1.54601 25.1665C1.55599 25.1466 1.56596 25.1266 1.58591 25.1067C1.59588 25.0867 1.60586 25.0668 1.6258 25.0468L1.67567 24.987C2.15442 24.4185 3.09198 24.229 4.23898 24.229C5.46578 24.229 6.93195 24.4484 8.29838 24.6578H8.35823C10.0538 24.9271 13.5746 25.4757 14.0733 27.0815C14.2329 27.6201 14.0135 28.0689 13.6245 28.7472C13.2455 29.4154 12.7667 30.2532 13.1258 31.2307C13.415 32.0186 14.1531 32.6669 15.2802 33.1058C16.1778 33.4549 17.3747 33.6843 18.6813 33.6843C20.2372 33.6843 21.9627 33.3751 23.5186 32.5772C26.6604 30.9813 29.513 27.0516 28.346 24.7476C27.8673 23.7801 26.9198 23.5507 26.1518 23.3612C25.4137 23.1817 24.9449 23.0421 24.6856 22.5733C23.8677 21.1071 25.8426 18.2645 26.8101 16.8782C26.84 16.8383 26.8699 16.7984 26.8898 16.7585C26.8898 16.7585 26.8599 16.7585 26.8499 16.7485C26.8599 16.7485 26.8799 16.7485 26.8898 16.7485L27.1292 16.4193C27.3786 16.0603 27.6479 15.6813 27.9072 15.3322C27.9471 15.2723 27.987 15.2225 28.0269 15.1726C29.0741 13.7563 30.4107 12.1704 31.6474 12.1704C31.6973 12.1704 31.7472 12.1704 31.797 12.1704C33.9813 12.3998 36.0659 17.6661 36.0659 22.6032L36.0858 22.6232Z" fill="#F5F5FF"/>
<path d="M58.0684 16.3994C57.5996 15.5416 56.9513 14.8833 56.1335 14.4345C55.3156 13.9857 54.3481 13.7563 53.261 13.7563C52.0442 13.7563 50.967 14.0356 50.0294 14.5741C49.0919 15.1227 48.3538 15.9007 47.8252 16.928C47.2965 17.9553 47.0372 19.1223 47.0372 20.4488C47.0372 21.7753 47.3065 23.0121 47.8451 24.0295C48.3837 25.0468 49.1318 25.8347 50.0893 26.3733C51.0468 26.9219 52.1638 27.1912 53.4405 27.1912C55.0064 27.1912 56.2831 26.7723 57.2905 25.9445C58.2878 25.1166 58.9461 23.9497 59.2553 22.4635H52.2137V19.3218H63.3147V22.9024C63.0454 24.3287 62.457 25.6552 61.5493 26.8621C60.6517 28.0789 59.4847 29.0464 58.0684 29.7844C56.6521 30.5225 55.0563 30.8816 53.3009 30.8816C51.326 30.8816 49.5407 30.4327 47.9449 29.5451C46.349 28.6574 45.1023 27.4206 44.1847 25.8347C43.277 24.2489 42.8182 22.4536 42.8182 20.4289C42.8182 18.4041 43.277 16.6088 44.1847 15.013C45.0923 13.4172 46.349 12.1704 47.9449 11.2827C49.5407 10.3951 51.3161 9.94623 53.2709 9.94623C55.5749 9.94623 57.5897 10.5048 59.2852 11.6318C60.9908 12.7589 62.1577 14.3348 62.8061 16.3695H58.0784L58.0684 16.3994Z" fill="#F5F5FF"/>
<path d="M72.5307 14.9631C73.3784 14.4744 74.3559 14.2251 75.453 14.2251V18.5438H74.3659C73.0792 18.5438 72.1018 18.843 71.4435 19.4514C70.7852 20.0598 70.4561 21.1171 70.4561 22.6231V30.722H66.3468V14.4644H70.4561V16.9879C70.9847 16.1301 71.6729 15.4519 72.5307 14.9631Z" fill="#F5F5FF"/>
<path d="M93.2067 23.83H81.3177C81.4174 25.0069 81.8264 25.9245 82.5545 26.5928C83.2826 27.261 84.1703 27.5902 85.2275 27.5902C86.7535 27.5902 87.8407 26.9319 88.489 25.6253H92.9174C92.4487 27.1912 91.551 28.4778 90.2145 29.4852C88.878 30.4926 87.2522 31.0013 85.3073 31.0013C83.7414 31.0013 82.3351 30.6522 81.0983 29.964C79.8515 29.2658 78.8841 28.2883 78.1959 27.0117C77.4977 25.735 77.1586 24.2688 77.1586 22.6032C77.1586 20.9375 77.4977 19.4414 78.1859 18.1747C78.8741 16.8981 79.8316 15.9206 81.0584 15.2424C82.2952 14.5542 83.7115 14.2151 85.3173 14.2151C86.9231 14.2151 88.2496 14.5442 89.4664 15.2125C90.6932 15.8807 91.6408 16.8183 92.309 18.0451C92.9872 19.2719 93.3264 20.6682 93.3264 22.2541C93.3264 22.8426 93.2865 23.3712 93.2067 23.84V23.83ZM89.0675 21.0672C89.0475 20.01 88.6685 19.1622 87.9205 18.5238C87.1724 17.8855 86.2648 17.5663 85.1876 17.5663C84.1703 17.5663 83.3125 17.8755 82.6143 18.4939C81.9161 19.1123 81.4972 19.9701 81.3377 21.0672H89.0575H89.0675Z" fill="#F5F5FF"/>
<path d="M111.319 23.83H99.4304C99.5302 25.0069 99.9391 25.9245 100.667 26.5928C101.395 27.261 102.283 27.5902 103.34 27.5902C104.866 27.5902 105.953 26.9319 106.602 25.6253H111.03C110.561 27.1912 109.664 28.4778 108.327 29.4852C106.991 30.4926 105.365 31.0013 103.42 31.0013C101.854 31.0013 100.448 30.6522 99.211 29.964C97.9643 29.2658 96.9968 28.2883 96.3086 27.0117C95.6104 25.735 95.2713 24.2688 95.2713 22.6032C95.2713 20.9375 95.6104 19.4414 96.2986 18.1747C96.9868 16.8981 97.9443 15.9206 99.1711 15.2424C100.408 14.5542 101.824 14.2151 103.43 14.2151C105.036 14.2151 106.362 14.5442 107.579 15.2125C108.806 15.8807 109.753 16.8183 110.422 18.0451C111.1 19.2719 111.439 20.6682 111.439 22.2541C111.439 22.8426 111.399 23.3712 111.319 23.84V23.83ZM107.18 21.0672C107.16 20.01 106.781 19.1622 106.033 18.5238C105.285 17.8855 104.378 17.5663 103.3 17.5663C102.283 17.5663 101.425 17.8755 100.727 18.4939C100.029 19.1123 99.61 19.9701 99.4504 21.0672H107.17H107.18Z" fill="#F5F5FF"/>
<path d="M119.219 17.8456V25.7151C119.219 26.2636 119.348 26.6626 119.618 26.902C119.887 27.1513 120.326 27.271 120.954 27.271H122.859V30.732H120.276C116.815 30.732 115.08 29.0464 115.08 25.6851V17.8456H113.145V14.4744H115.08V10.4549H119.219V14.4744H122.859V17.8456H119.219Z" fill="#F5F5FF"/>
<path d="M150.846 16.0603C152.073 17.2871 152.681 18.9926 152.681 21.1869V30.732H148.572V21.7454C148.572 20.4688 148.253 19.5013 147.605 18.8231C146.956 18.1448 146.079 17.8057 144.962 17.8057C143.844 17.8057 142.957 18.1448 142.308 18.8231C141.65 19.5013 141.321 20.4688 141.321 21.7454V30.732H137.212V21.7454C137.212 20.4688 136.893 19.5013 136.244 18.8231C135.596 18.1448 134.718 17.8057 133.601 17.8057C132.484 17.8057 131.567 18.1448 130.918 18.8231C130.26 19.5013 129.931 20.4688 129.931 21.7454V30.732H125.822V14.4644H129.931V16.4293C130.459 15.7411 131.138 15.2025 131.975 14.8135C132.803 14.4245 133.721 14.2251 134.718 14.2251C135.985 14.2251 137.122 14.4944 138.119 15.033C139.117 15.5716 139.895 16.3395 140.443 17.3369C140.972 16.3994 141.74 15.6414 142.747 15.0729C143.755 14.5043 144.842 14.2251 146.019 14.2251C148.014 14.2251 149.629 14.8335 150.846 16.0603Z" fill="#F5F5FF"/>
<path d="M156.511 18.1648C157.17 16.8881 158.057 15.9107 159.184 15.2324C160.312 14.5442 161.568 14.2051 162.955 14.2051C164.171 14.2051 165.229 14.4545 166.136 14.9432C167.044 15.4319 167.772 16.0503 168.321 16.7884V14.4644H172.46V30.732H168.321V28.3582C167.792 29.1162 167.064 29.7545 166.136 30.2532C165.209 30.7519 164.132 31.0013 162.925 31.0013C161.558 31.0013 160.312 30.6522 159.184 29.944C158.057 29.2359 157.17 28.2484 156.511 26.9618C155.853 25.6752 155.524 24.209 155.524 22.5433C155.524 20.8777 155.853 19.4414 156.511 18.1648ZM167.742 20.0299C167.353 19.3118 166.824 18.7632 166.156 18.3842C165.488 18.0052 164.78 17.8157 164.012 17.8157C163.244 17.8157 162.546 18.0052 161.897 18.3742C161.249 18.7433 160.73 19.2918 160.331 20C159.932 20.7181 159.733 21.5659 159.733 22.5433C159.733 23.5208 159.932 24.3785 160.331 25.1166C160.73 25.8547 161.259 26.4132 161.917 26.8022C162.576 27.1912 163.274 27.3907 164.012 27.3907C164.75 27.3907 165.488 27.2012 166.156 26.8222C166.824 26.4432 167.353 25.8946 167.742 25.1765C168.131 24.4583 168.331 23.6006 168.331 22.6032C168.331 21.6058 168.131 20.748 167.742 20.0299Z" fill="#F5F5FF"/>
<path d="M181.277 17.8456V25.7151C181.277 26.2636 181.406 26.6626 181.676 26.902C181.945 27.1513 182.384 27.271 183.012 27.271H184.917V30.732H182.334C178.873 30.732 177.138 29.0464 177.138 25.6851V17.8456H175.203V14.4744H177.138V10.4549H181.277V14.4744H184.917V17.8456H181.277Z" fill="#F5F5FF"/>
<path d="M202.88 23.83H190.991C191.091 25.0069 191.5 25.9245 192.228 26.5928C192.956 27.261 193.844 27.5902 194.901 27.5902C196.427 27.5902 197.514 26.9319 198.163 25.6253H202.591C202.122 27.1912 201.225 28.4778 199.888 29.4852C198.552 30.4926 196.926 31.0013 194.981 31.0013C193.415 31.0013 192.009 30.6522 190.772 29.964C189.525 29.2658 188.558 28.2883 187.87 27.0117C187.171 25.735 186.832 24.2688 186.832 22.6032C186.832 20.9375 187.171 19.4414 187.86 18.1747C188.548 16.8981 189.505 15.9206 190.732 15.2424C191.969 14.5542 193.385 14.2151 194.991 14.2151C196.597 14.2151 197.923 14.5442 199.14 15.2125C200.367 15.8807 201.314 16.8183 201.983 18.0451C202.661 19.2719 203 20.6682 203 22.2541C203 22.8426 202.96 23.3712 202.88 23.84V23.83ZM198.741 21.0672C198.721 20.01 198.342 19.1622 197.594 18.5238C196.846 17.8855 195.938 17.5663 194.861 17.5663C193.844 17.5663 192.986 17.8755 192.288 18.4939C191.59 19.1123 191.171 19.9701 191.011 21.0672H198.731H198.741Z" fill="#F5F5FF"/>
</g>
<defs>
<clipPath id="clip0_9_776">
<rect width="203" height="39.9956" fill="white" transform="translate(0 0.00219727)"/>
</clipPath>
</defs>
</svg>
